<svg width="50" height="50" viewBox="0 0 50 50" fill="none" xmlns="http://www.w3.org/2000/svg">
<circle opacity="0.3" cx="25" cy="25" r="25" fill="url(#paint0_linear_3_4343)"/>
<mask id="mask0_3_4343" style="mask-type:alpha" maskUnits="userSpaceOnUse" x="0" y="0" width="50" height="50">
<circle cx="25" cy="25" r="25" fill="#C4C4C4"/>
</mask>
<g mask="url(#mask0_3_4343)">
<path d="M24.3607 60.4275C23.5618 60.4289 22.7652 60.3441 21.9844 60.1747C20.6197 59.8934 19.3341 59.3121 18.2204 58.4726C17.1066 57.6331 16.1924 56.5562 15.5435 55.3197C15.0286 54.163 14.6461 52.9516 14.4034 51.7085L14.3474 51.4718C13.5472 48.0532 12.5391 44.438 10.6789 41.1719C10.3788 40.6463 10.0508 40.1206 9.73473 39.6151C8.97013 38.4703 8.32276 37.2511 7.80247 35.9758C7.00237 33.7891 7.15039 31.6143 8.24253 30.1819C8.3864 29.9594 8.57359 29.7682 8.79288 29.62C9.01217 29.4718 9.25904 29.3695 9.5187 29.3192C9.67693 29.3 9.83739 29.3137 9.99016 29.3592C10.1429 29.4048 10.2847 29.4813 10.4068 29.584C10.5021 29.6602 10.5801 29.7557 10.636 29.8643C10.6918 29.9728 10.7242 30.092 10.7309 30.214H10.4708C10.4646 30.1289 10.4407 30.0461 10.4008 29.9708C10.3608 29.8955 10.3056 29.8294 10.2388 29.7766C10.1438 29.6975 10.034 29.6383 9.91581 29.6025C9.79763 29.5666 9.67348 29.5549 9.55071 29.568C9.1 29.671 8.70609 29.944 8.45056 30.3304C7.41442 31.6986 7.2504 33.773 8.05051 35.8755C8.56639 37.1416 9.20981 38.3516 9.97076 39.4867C10.2868 39.9963 10.6149 40.5219 10.9189 41.0515C12.7831 44.3417 13.8033 47.9769 14.6034 51.4156L14.6594 51.6523C14.8971 52.8748 15.2729 54.0662 15.7795 55.2033C16.4101 56.405 17.2988 57.4512 18.3815 58.2665C19.4642 59.0818 20.7139 59.6459 22.0404 59.9179C24.7226 60.451 27.5055 60.0727 29.9494 58.8426C30.928 58.4052 31.8115 57.7795 32.5498 57.0009C33.3008 56.0891 33.8797 55.0475 34.258 53.9274C34.9261 52.1699 35.4582 50.3162 35.9382 48.5307C36.6783 45.8664 37.4424 43.1099 38.7386 40.6142C39.1387 39.8839 39.5387 39.1657 39.9628 38.4715C40.7568 37.2257 41.4268 35.9047 41.963 34.5273C42.4231 33.2193 42.4431 32.1199 42.0271 31.3174C41.881 31.0498 41.6781 30.8176 41.4326 30.6374C41.1872 30.4571 40.9053 30.3331 40.6069 30.2742C40.3985 30.2248 40.1815 30.2248 39.9732 30.2742C39.7648 30.3237 39.5709 30.4212 39.4067 30.5591L39.2347 30.3625C39.4277 30.1968 39.6566 30.0787 39.9031 30.0174C40.1497 29.9561 40.4071 29.9533 40.6549 30.0094C40.9935 30.0795 41.3125 30.2237 41.5891 30.4318C41.8658 30.6399 42.0932 30.9067 42.2551 31.2131C42.7071 32.0958 42.6871 33.2434 42.2031 34.6236C41.6613 36.0183 40.9804 37.3546 40.1708 38.612C39.7708 39.3061 39.3307 40.0203 38.9706 40.7426C37.6905 43.2142 36.9304 45.9587 36.1943 48.6069C35.6942 50.4045 35.1781 52.2622 34.502 54.0277C34.1153 55.1788 33.5214 56.2491 32.7498 57.1854C31.9872 57.9889 31.0753 58.635 30.0655 59.0873C28.2874 59.9554 26.3382 60.4133 24.3607 60.4275Z" fill="#AB8DA8"/>
<path d="M27.2971 13.7068C27.5039 13.3775 27.6224 13.0002 27.6411 12.6114C27.6637 12.4368 27.6478 12.2594 27.5946 12.0916C27.5414 11.9238 27.4521 11.7698 27.3331 11.6404C27.2331 11.5441 27.1091 11.4679 27.017 11.3635C26.925 11.2592 26.881 11.1509 26.805 11.0506C26.7226 10.9429 26.6166 10.8558 26.4952 10.796C26.3737 10.7361 26.2402 10.7052 26.1049 10.7055C25.8289 10.7055 25.5368 10.8339 25.3048 10.7055C25.1608 10.6333 25.0648 10.4888 24.9048 10.4086C24.7542 10.3317 24.5814 10.3104 24.4167 10.3484C24.2728 10.3987 24.1209 10.4218 23.9686 10.4166C23.7526 10.3845 23.6046 10.1919 23.4126 10.0836C23.3139 10.033 23.2053 10.0046 23.0945 10.0005C22.9837 9.99643 22.8734 10.0167 22.7712 10.0599C22.6691 10.1031 22.5776 10.1682 22.5032 10.2506C22.4287 10.333 22.3732 10.4308 22.3404 10.537C22.3143 10.6383 22.3143 10.7446 22.3404 10.8459C22.3844 11.0907 22.5524 11.2873 22.5644 11.5321C22.5764 11.7768 22.4284 11.9895 22.5644 12.2061C22.7005 12.4228 22.9005 12.4308 22.9965 12.6355C23.1245 12.9123 22.9965 13.2734 23.1125 13.5704C23.1725 13.7589 23.2045 14.0278 23.3806 14.1481C23.6246 14.3167 24.1567 14.1762 24.4487 14.1481L25.5809 14.0559C26.0809 14.0077 26.697 14.0559 27.1491 13.8071C27.2036 13.7822 27.2537 13.7483 27.2971 13.7068Z" fill="#3B2645"/>
<path d="M23.4566 13.5301C23.4169 13.4754 23.3648 13.4309 23.3047 13.4002C23.2445 13.3695 23.178 13.3535 23.1105 13.3535C23.043 13.3535 22.9765 13.3695 22.9164 13.4002C22.8562 13.4309 22.8042 13.4754 22.7645 13.5301C22.4164 13.9314 23.0045 14.7339 23.4566 14.782C23.4829 14.3651 23.4829 13.947 23.4566 13.5301Z" fill="#E0855C"/>
<path d="M29.0773 20.2512C28.9719 20.927 28.8303 21.5967 28.6532 22.2574C28.6252 22.3817 28.6012 22.5021 28.5852 22.6185C28.5692 22.7348 28.5532 22.8231 28.5332 22.9716C28.5332 22.9997 28.5332 23.0318 28.5332 23.0598C28.5332 23.1561 28.5052 23.2564 28.4932 23.3648L27.9892 28.0794C24.8567 28.942 21.5883 28.0794 21.5883 28.0794C21.5883 28.0794 21.5883 28.0192 21.5883 27.9028C21.5363 27.3692 21.3763 25.6719 21.2162 23.758C21.2162 23.758 21.2162 23.7299 21.2162 23.7179C21.2179 23.6885 21.2179 23.659 21.2162 23.6296C21.1482 22.8271 21.0842 21.9765 21.0322 21.166C20.9362 19.7576 20.8762 18.4576 20.8882 17.6511C20.8882 17.3542 21.5803 17.3863 22.0524 17.3221C22.4004 17.2739 22.7565 17.2418 23.0645 17.2258C23.3725 17.2097 23.6046 17.2017 23.7606 17.2017H23.9366C23.9366 17.2017 23.9766 16.7403 23.9766 16.7363L24.0846 15.6048C24.1371 15.6184 24.1907 15.6277 24.2447 15.6329C24.3437 15.6515 24.444 15.6622 24.5447 15.665C24.6767 15.665 24.8007 15.665 24.9167 15.665L25.0888 15.6449H25.1888C25.3008 15.6248 25.4088 15.6008 25.5088 15.5727C25.6088 15.5446 25.6408 15.5326 25.7048 15.5125C25.9971 15.4186 26.2746 15.2835 26.529 15.1112L26.565 15.0872L26.633 15.035L26.681 14.9989C26.681 15.0551 26.681 15.0791 26.681 15.1032C26.649 15.368 26.613 15.7051 26.597 16.0381C26.597 16.2708 26.573 16.4995 26.565 16.6962C26.557 16.8928 26.493 17.1776 26.633 17.278C26.6829 17.3061 26.7369 17.3264 26.793 17.3381C27.0126 17.3729 27.2348 17.3877 27.4571 17.3823C27.5251 17.3823 27.5931 17.3823 27.6611 17.3823C27.8317 17.3723 28.0026 17.3723 28.1732 17.3823C28.2924 17.3819 28.4104 17.4055 28.5203 17.4517C28.6303 17.4979 28.7299 17.5657 28.8133 17.6511C28.9169 17.8017 28.9828 17.9751 29.0053 18.1567L29.0533 18.4857C29.1294 19.0713 29.1375 19.6637 29.0773 20.2512Z" fill="#FFEDE5"/>
<path d="M26.665 14.9707C26.6109 15.2579 26.494 15.5294 26.3228 15.7659C26.1516 16.0023 25.9302 16.1978 25.6747 16.3382C25.4192 16.4786 25.1358 16.5605 24.845 16.578C24.5541 16.5954 24.263 16.5481 23.9926 16.4392L24.0686 15.6087C24.5217 15.6963 24.9882 15.6847 25.4364 15.5746C25.8845 15.4645 26.3036 15.2585 26.665 14.9707Z" fill="#E0855C"/>
<path d="M23.5366 12.3266C23.3046 12.5673 23.2846 13.105 23.2686 13.6988C23.2085 15.5044 23.7486 16.0662 24.6647 16.1665C25.5809 16.2668 26.545 15.9097 26.741 14.2405C26.841 13.4019 26.945 12.6356 26.641 12.2704C26.2049 11.7328 24.2407 11.5883 23.5366 12.3266Z" fill="#FFEDE5"/>
<path d="M26.6051 13.9958C26.6051 13.9958 26.8851 13.2495 27.3292 13.6467C27.7732 14.044 27.1611 15.1715 26.481 15.0872C26.489 15.0872 26.397 14.2526 26.6051 13.9958Z" fill="#FFEDE5"/>
<path d="M27.1332 13.9877C27.0281 14.0206 26.9341 14.0816 26.8611 14.1642C26.7785 14.2335 26.7117 14.3197 26.6651 14.417C26.6651 14.4451 26.6931 14.4652 26.7131 14.4451C26.7695 14.3891 26.8229 14.3302 26.8731 14.2686C26.9096 14.3089 26.9548 14.3405 27.0051 14.3608C27.0451 14.3608 27.0772 14.3247 27.0612 14.2926C27.0334 14.2501 26.9965 14.2145 26.9531 14.1883C27.0278 14.1403 27.0987 14.0867 27.1652 14.0278C27.1664 14.023 27.1665 14.0179 27.1655 14.0131C27.1644 14.0082 27.1623 14.0036 27.1592 13.9997C27.1561 13.9958 27.1521 13.9927 27.1476 13.9906C27.1431 13.9885 27.1381 13.9875 27.1332 13.9877Z" fill="#E0855C"/>
<path d="M24.0567 13.6587C24.0567 13.6587 23.9007 13.7148 23.9247 13.438C23.9487 13.1611 24.0567 13.2253 24.0567 13.2253C24.0567 13.2253 24.1647 13.2253 24.1487 13.442C24.1327 13.6587 24.0567 13.6587 24.0567 13.6587Z" fill="#3B2645"/>
<path d="M25.6288 13.6587C25.6288 13.6587 25.4768 13.7148 25.5008 13.438C25.5248 13.1611 25.6288 13.2253 25.6288 13.2253C25.6288 13.2253 25.7368 13.2253 25.7208 13.442C25.7048 13.6587 25.6288 13.6587 25.6288 13.6587Z" fill="#3B2645"/>
<path d="M24.2247 12.8201C24.1618 12.7844 24.0894 12.7694 24.0176 12.7773C23.9457 12.7853 23.8782 12.8156 23.8246 12.8642C23.8219 12.8697 23.8206 12.8758 23.8209 12.8819C23.8212 12.888 23.823 12.894 23.8262 12.8992C23.8294 12.9044 23.8339 12.9087 23.8392 12.9117C23.8445 12.9147 23.8505 12.9163 23.8566 12.9164C23.9126 12.9164 23.9606 12.8843 24.0167 12.8802C24.0753 12.8774 24.1339 12.887 24.1887 12.9083C24.2407 12.9244 24.2767 12.8441 24.2247 12.8201Z" fill="#3B2645"/>
<path d="M25.8649 12.9566C25.8009 12.7961 25.5248 12.7841 25.4048 12.8804C25.399 12.8849 25.3943 12.8907 25.3911 12.8973C25.3878 12.9039 25.3862 12.9111 25.3862 12.9185C25.3862 12.9259 25.3878 12.9331 25.3911 12.9397C25.3943 12.9463 25.399 12.9521 25.4048 12.9566C25.4767 12.9626 25.549 12.9626 25.6209 12.9566C25.679 12.966 25.7356 12.9836 25.7889 13.0088C25.7958 13.0189 25.8064 13.0258 25.8184 13.0281C25.8304 13.0304 25.8428 13.0277 25.8529 13.0208C25.863 13.0139 25.8699 13.0033 25.8721 12.9912C25.8744 12.9792 25.8718 12.9667 25.8649 12.9566Z" fill="#3B2645"/>
<path d="M24.3727 14.9506C24.7102 14.995 25.0532 14.9363 25.3569 14.7821C25.3114 14.8892 25.2442 14.9855 25.1595 15.065C25.0747 15.1445 24.9744 15.2053 24.8648 15.2435C24.5167 15.3398 24.3727 14.9506 24.3727 14.9506Z" fill="white"/>
<path d="M22.3524 17.647C23.2725 18.293 23.3565 19.5489 22.9085 20.552C22.6044 21.2221 22.0404 21.6915 21.7083 22.3255C21.3623 22.9404 20.9606 23.522 20.5082 24.0629C19.516 25.3268 18.5719 26.4703 18.2079 26.9037C16.9557 28.4043 14.3233 30.3865 13.3752 31.0766C13.1592 31.2371 13.0312 31.3254 13.0312 31.3254C13.0312 31.3254 12.123 30.8479 12.3631 29.9651C12.3631 29.9651 15.9636 26.1293 16.4956 25.3469C17.0836 24.3299 17.6178 23.2825 18.0958 22.2092C18.7093 21.0188 19.348 19.8445 20.0121 18.6863C20.3161 18.1526 20.7042 17.4825 21.3723 17.3622C21.6419 17.3318 21.9141 17.3895 22.1484 17.5267C22.2192 17.5619 22.2873 17.6021 22.3524 17.647Z" fill="#FFEDE5"/>
<path d="M12.3631 29.9692C12.4616 29.9616 12.5606 29.9616 12.6591 29.9692C12.6591 29.9692 13.5232 30.4507 13.3752 31.0766C13.3752 31.0766 13.2832 31.1609 13.1392 31.2893C12.9952 31.4177 12.8391 31.5702 12.6511 31.7627C12.4631 31.9553 12.035 32.5652 11.851 32.5131C11.8081 32.4972 11.7707 32.4693 11.743 32.4328L11.371 32.0316C11.1629 31.7989 10.8149 31.4056 11.0789 31.0967C10.8869 31.213 10.4388 31.4979 10.2188 31.3615L10.1268 31.213C10.1268 31.213 10.7869 30.7195 11.0589 30.4748C11.4259 30.1662 11.8846 29.9884 12.3631 29.9692Z" fill="#FFEDE5"/>
<path d="M23.4446 23.7941C23.4432 23.8154 23.4432 23.8369 23.4446 23.8583C23.4446 23.8583 23.4806 23.8583 23.4726 23.8583L23.4446 23.7941Z" fill="#D6BED3"/>
<path d="M24.9288 36.7983C24.5608 39.7554 24.1287 42.3274 24.1287 42.3274C24.1887 43.0416 24.2167 43.816 24.2167 44.6104C24.2167 46.1672 24.1127 47.8204 23.9807 49.2769C23.8127 51.1346 23.5807 52.7155 23.4806 53.51V53.6103C23.6287 58.8786 22.1325 59.5767 21.4324 58.4252C20.7323 57.2736 21.4324 53.8791 21.4324 53.8791C21.4346 53.8484 21.4346 53.8175 21.4324 53.7868C21.1378 52.2103 20.9414 50.617 20.8443 49.0161C20.6043 45.1401 21.0163 42.4879 20.9683 42.0064C20.1322 33.5803 21.3004 28.9339 21.3004 28.9339C21.4827 28.2588 21.812 27.6325 22.2645 27.1003C23.1166 26.1774 24.1407 26.4101 24.7848 27.5376C24.8525 27.6532 24.914 27.7724 24.9688 27.8947C25.2313 28.5423 25.3802 29.2305 25.4089 29.929C25.4729 31.6744 25.2289 34.3667 24.9288 36.7983Z" fill="#FFEDE5"/>
<path d="M29.0613 48.8115C28.9683 50.4458 28.7732 52.0727 28.4773 53.6825L28.4412 53.8792C28.4412 53.8792 29.1413 57.2857 28.4412 58.4252C27.7412 59.5647 26.261 58.8987 26.393 53.6825C26.393 53.6585 26.393 53.6344 26.393 53.6143C26.281 52.86 26.0569 51.2269 25.8809 49.293C25.7449 47.8244 25.6409 46.1793 25.6409 44.6225C25.6409 43.82 25.6729 43.0497 25.7329 42.3314C25.7329 42.3314 25.2888 39.7595 24.9328 36.8063C24.6327 34.3708 24.3847 31.6785 24.4887 29.9491C24.5186 29.2504 24.6689 28.5622 24.9328 27.9148C24.9852 27.7888 25.0467 27.6668 25.1168 27.5497C25.8569 26.2617 27.0891 26.1494 27.9972 27.6019C28.2573 28.0229 28.4617 28.4761 28.6053 28.95C28.6053 28.95 29.7734 33.5844 28.9373 42.0225C28.8773 42.4959 29.2734 45.0559 29.0613 48.8115Z" fill="#FFEDE5"/>
<path d="M12.2671 32.5733C12.3468 32.6658 12.4458 32.7396 12.5571 32.7896C12.6684 32.8395 12.7893 32.8643 12.9112 32.8622C12.967 32.8491 13.0196 32.8249 13.0659 32.7909C13.1121 32.7568 13.151 32.7138 13.1801 32.6643C13.2093 32.6148 13.2282 32.5598 13.2356 32.5028C13.243 32.4458 13.2388 32.3879 13.2232 32.3325C13.1767 32.2105 13.1012 32.1017 13.0032 32.0155C12.3991 31.4137 11.779 30.8118 11.1509 30.2541C11.046 30.1354 10.9057 30.0538 10.7509 30.0214C10.6069 30.0213 10.4676 30.0725 10.3577 30.1658C10.2478 30.2591 10.1745 30.3885 10.1508 30.5309C10.1508 30.7877 10.3708 30.884 10.5509 31.0285C11.1189 31.534 11.687 32.0637 12.2671 32.5733Z" fill="#3B2645"/>
<path d="M12.1791 31.8628C12.204 31.8371 12.2243 31.8072 12.2391 31.7746C12.2492 31.7331 12.2498 31.6899 12.2408 31.6482C12.2318 31.6065 12.2134 31.5674 12.1871 31.5338C12.039 31.2891 11.735 30.8959 11.435 30.8597C11.3359 30.8547 11.2372 30.8757 11.1488 30.9208C11.0604 30.9658 10.9852 31.0333 10.9309 31.1165C10.8411 31.2461 10.784 31.3955 10.7645 31.5521C10.745 31.7086 10.7637 31.8676 10.8189 32.0153C10.9067 32.2811 11.0871 32.5061 11.3269 32.6493C11.4466 32.7002 11.5813 32.7027 11.7028 32.6563C11.8243 32.61 11.9233 32.5183 11.979 32.4005C12.039 32.2521 12.019 32.0715 12.1151 31.9471C12.1333 31.9168 12.1547 31.8885 12.1791 31.8628Z" fill="#FFEDE5"/>
<path d="M27.4891 17.647C26.565 18.293 26.481 19.5489 26.933 20.552C27.2331 21.2221 27.7972 21.6915 28.1332 22.3255C28.482 22.9386 28.8836 23.5199 29.3334 24.0629C30.3255 25.3268 31.2736 26.4703 31.6337 26.9037C32.8898 28.4123 35.5222 30.3864 36.4703 31.0766L36.8184 31.3254C36.8184 31.3254 37.7225 30.8479 37.4825 29.9651C37.4825 29.9651 33.882 26.1293 33.3499 25.3469C32.7603 24.3308 32.2261 23.2833 31.7497 22.2092C31.1336 21.0054 30.4975 19.8458 29.8294 18.6863C29.5254 18.1526 29.1413 17.4825 28.4692 17.3622C28.1997 17.3321 27.9275 17.3897 27.6931 17.5267C27.6223 17.5617 27.5541 17.6019 27.4891 17.647Z" fill="#FFEDE5"/>
<path d="M37.4785 29.9692C37.3786 29.9616 37.2783 29.9616 37.1784 29.9692C37.1784 29.9692 36.3143 30.4506 36.4623 31.0766C36.4623 31.0766 36.5584 31.1608 36.6984 31.2892C36.8384 31.4176 37.0024 31.5701 37.1864 31.7627C37.3705 31.9553 37.8065 32.5652 37.9865 32.513C38.0289 32.4961 38.0661 32.4684 38.0946 32.4328L38.4626 32.0315C38.6746 31.7988 39.0187 31.4056 38.7587 31.0966C38.9467 31.213 39.3947 31.4979 39.6188 31.3615L39.6948 31.213C39.6948 31.213 39.0347 30.7195 38.7587 30.4747C38.3987 30.17 37.9489 29.9924 37.4785 29.9692Z" fill="#FFEDE5"/>
<path d="M37.5705 32.5732C37.4908 32.6657 37.3918 32.7396 37.2805 32.7895C37.1692 32.8394 37.0483 32.8642 36.9264 32.8621C36.8698 32.85 36.8163 32.8264 36.7692 32.7928C36.7221 32.7591 36.6823 32.7162 36.6523 32.6666C36.6223 32.617 36.6028 32.5618 36.5949 32.5043C36.587 32.4468 36.5909 32.3884 36.6063 32.3325C36.6562 32.2158 36.733 32.1127 36.8304 32.0315C37.4358 31.4297 38.0545 30.8425 38.6866 30.2701C38.791 30.1507 38.9315 30.069 39.0867 30.0374C39.2302 30.0374 39.369 30.0888 39.4782 30.1821C39.5874 30.2755 39.6599 30.4048 39.6828 30.5469C39.6828 30.8037 39.4667 30.9 39.2827 31.0445C38.7186 31.534 38.1506 32.0636 37.5705 32.5732Z" fill="#3B2645"/>
<path d="M37.6625 31.8628C37.6352 31.8383 37.6134 31.8082 37.5985 31.7746C37.5901 31.7328 37.5907 31.6896 37.6004 31.6481C37.61 31.6065 37.6285 31.5676 37.6545 31.5338C37.7986 31.2891 38.1026 30.8959 38.4026 30.8597C38.5017 30.8547 38.6004 30.8757 38.6888 30.9208C38.7772 30.9658 38.8524 31.0333 38.9067 31.1165C38.9955 31.2467 39.051 31.3967 39.0685 31.5534C39.0859 31.7101 39.0647 31.8687 39.0067 32.0153C38.9216 32.2825 38.7405 32.5084 38.4987 32.6493C38.379 32.7002 38.2443 32.7027 38.1228 32.6563C38.0013 32.61 37.9023 32.5183 37.8466 32.4005C37.7906 32.2521 37.8106 32.0715 37.7106 31.9471L37.6625 31.8628Z" fill="#FFEDE5"/>
<path d="M29.1214 46.2394V46.6407C29.1214 46.9095 29.1214 47.1864 29.1214 47.4712V47.7962C29.1214 48.1253 29.0974 48.4663 29.0814 48.8154C28.0456 49.102 26.9791 49.2623 25.905 49.2929C25.861 48.8435 25.773 47.6478 25.769 47.5154C25.769 47.2425 25.7089 46.4721 25.7049 46.3678C25.6809 45.782 25.6649 45.1962 25.6649 44.6224C25.6649 43.8761 25.6929 43.1459 25.749 42.4678C25.749 42.4196 25.749 42.3755 25.749 42.3313C25.749 42.2872 25.3049 39.7634 24.9488 36.8062C24.9088 37.1192 24.8688 37.4322 24.8288 37.7331C24.4928 40.277 24.1367 42.3313 24.1367 42.3313C24.1967 43.0455 24.2247 43.8199 24.2247 44.6144C24.2247 45.2203 24.2247 45.8181 24.1807 46.4521C24.1807 46.5564 24.1007 47.8966 24.0887 48.025C24.0607 48.4543 24.0247 48.8756 23.9887 49.2808C23.4286 49.2568 22.8766 49.2206 22.3285 49.1725C21.8964 49.1364 21.3524 49.1123 20.8243 49.0361C20.8003 48.675 20.7843 48.3299 20.7723 47.9929C20.7723 47.9086 20.7723 47.8243 20.7723 47.7401C20.7723 47.3709 20.7723 47.0218 20.7723 46.6848V46.42C20.7723 43.9885 21.0083 42.3875 20.9723 42.0063C20.1362 33.5803 21.3044 28.9339 21.3044 28.9339C21.4867 28.2587 21.816 27.6325 22.2685 27.1002C22.6114 27.1535 22.9479 27.2422 23.2726 27.365C23.7673 27.4947 24.2778 27.5528 24.7888 27.5376H25.1569C25.6009 27.5376 26.045 27.4854 26.4851 27.4734H26.7811C27.203 27.4671 27.6242 27.5074 28.0373 27.5937C28.2841 28.0194 28.4751 28.4752 28.6053 28.9499C28.9285 30.4644 29.1186 32.0044 29.1734 33.5522C29.3089 36.3775 29.23 39.2091 28.9374 42.0224C28.8894 42.3795 29.1014 43.9082 29.1214 46.2394Z" fill="#3B2645"/>
<path d="M13.0872 17.1695C13.0872 17.1455 13.0392 17.1455 13.0352 17.1695C12.8352 18.5378 12.9512 19.9782 12.9512 21.3786C12.9512 22.8592 12.9032 24.3518 12.9912 25.8283C12.995 25.8441 13.004 25.8581 13.0167 25.8682C13.0294 25.8782 13.0451 25.8837 13.0612 25.8837C13.0774 25.8837 13.0931 25.8782 13.1058 25.8682C13.1185 25.8581 13.1275 25.8441 13.1313 25.8283C13.2153 24.3518 13.1673 22.8592 13.1673 21.3786C13.1673 20.0103 13.2833 18.5498 13.0872 17.1695Z" fill="#F7F8F8"/>
<path d="M14.8354 17.635C14.8312 17.6153 14.8203 17.5976 14.8047 17.585C14.789 17.5723 14.7695 17.5654 14.7494 17.5654C14.7293 17.5654 14.7098 17.5723 14.6942 17.585C14.6785 17.5976 14.6677 17.6153 14.6634 17.635C14.6634 18.9511 14.5794 20.2912 14.6634 21.6033C14.6634 21.6256 14.6723 21.647 14.688 21.6629C14.7038 21.6787 14.7251 21.6875 14.7474 21.6875C14.7697 21.6875 14.7911 21.6787 14.8068 21.6629C14.8226 21.647 14.8314 21.6256 14.8314 21.6033C14.9234 20.2912 14.8434 18.9511 14.8354 17.635Z" fill="#F7F8F8"/>
<path d="M32.7218 31.4136C32.7186 31.4017 32.7115 31.3913 32.7018 31.3838C32.692 31.3764 32.6801 31.3723 32.6678 31.3723C32.6555 31.3723 32.6436 31.3764 32.6338 31.3838C32.6241 31.3913 32.617 31.4017 32.6138 31.4136C32.5011 33.1366 32.4784 34.8643 32.5458 36.5896C32.5458 38.315 32.5458 40.0363 32.6098 41.7616C32.6132 41.7745 32.6207 41.7858 32.6312 41.7939C32.6417 41.802 32.6546 41.8064 32.6678 41.8064C32.681 41.8064 32.6939 41.802 32.7044 41.7939C32.7149 41.7858 32.7224 41.7745 32.7258 41.7616C32.7818 40.0363 32.7818 38.315 32.7898 36.5896C32.8552 34.8643 32.8325 33.1367 32.7218 31.4136Z" fill="#F7F8F8"/>
<path d="M35.8063 21.3223C35.7938 20.1742 35.719 19.0277 35.5823 17.8877C35.5823 17.8195 35.4743 17.8396 35.4703 17.8877C35.4394 19.1206 35.4755 20.3542 35.5783 21.5831C35.6303 22.7267 35.6183 23.8983 35.7703 25.0298C35.7703 25.1341 35.9463 25.102 35.9503 25.0057C36.0063 23.7819 35.8783 22.5341 35.8063 21.3223Z" fill="#F7F8F8"/>
<path d="M36.6064 21.9603C36.6036 21.9513 36.598 21.9435 36.5905 21.9379C36.5829 21.9323 36.5738 21.9293 36.5644 21.9293C36.555 21.9293 36.5459 21.9323 36.5383 21.9379C36.5308 21.9435 36.5252 21.9513 36.5224 21.9603C36.4164 23.6088 36.4084 25.2622 36.4984 26.9116C36.4959 26.9217 36.4957 26.9322 36.4979 26.9423C36.5 26.9524 36.5045 26.9619 36.5108 26.9701C36.5172 26.9782 36.5253 26.9848 36.5346 26.9894C36.5439 26.9939 36.5541 26.9963 36.5644 26.9963C36.5747 26.9963 36.5849 26.9939 36.5942 26.9894C36.6035 26.9848 36.6116 26.9782 36.618 26.9701C36.6243 26.9619 36.6287 26.9524 36.6309 26.9423C36.6331 26.9322 36.6329 26.9217 36.6304 26.9116C36.7204 25.2622 36.7124 23.6088 36.6064 21.9603Z" fill="#F7F8F8"/>
<path d="M24.8088 37.7291C24.8149 37.4167 24.8551 37.1059 24.9288 36.8022C24.8888 37.1152 24.8488 37.4282 24.8088 37.7291Z" fill="#291B30"/>
<path d="M29.1614 33.5523C28.6213 30.2982 24.1607 30.1458 24.1607 30.1458C23.8847 28.8056 25.6849 28.4044 25.6849 28.4044L26.7371 27.4936C27.1589 27.4873 27.5802 27.5276 27.9932 27.6139C28.2538 28.031 28.4595 28.4801 28.6053 28.9501C28.9219 30.4653 29.1079 32.0051 29.1614 33.5523Z" fill="#291B30"/>
<path d="M28.6693 29.2991C25.0688 30.9963 21.1563 29.4395 21.1563 29.4395C21.4403 28.637 21.2283 24.5444 21.2083 23.766C21.2083 23.766 21.2083 23.7379 21.2083 23.7258C21.2099 23.6964 21.2099 23.667 21.2083 23.6376C21.9644 21.8801 22.0484 18.4937 22.0524 17.3301C22.3925 17.2779 22.7485 17.2498 23.0566 17.2338C23.1766 18.5338 23.6046 21.8681 24.7968 21.7237C25.9889 21.5792 26.557 18.61 26.7651 17.31C26.9844 17.3469 27.2069 17.3617 27.4291 17.3541C27.4972 17.3541 27.5652 17.3541 27.6332 17.3541C27.5292 19.1316 28.5133 22.8672 28.5413 22.9715C28.5413 22.9996 28.5413 23.0317 28.5413 23.0598C28.5413 23.1561 28.5133 23.2564 28.5013 23.3647C28.5013 23.3647 28.5013 23.4089 28.5013 23.4329C28.2493 25.6959 28.6693 29.2991 28.6693 29.2991Z" fill="#AB8DA8"/>
</g>
<defs>
<linearGradient id="paint0_linear_3_4343" x1="50" y1="50" x2="-16.6397" y2="44.8434" gradientUnits="userSpaceOnUse">
<stop stop-color="#92A3FD"/>
<stop offset="1" stop-color="#9DCEFF"/>
</linearGradient>
</defs>
</svg>
